<svg id="monkey" xmlns="http://www.w3.org/2000/svg" viewBox="0 0 185.5 182.52"><defs><style>.cls-1,.cls-3{fill:#fbe3c0;}.cls-1,.cls-10,.cls-11,.cls-4,.cls-5,.cls-7{stroke:#000;stroke-miterlimit:10;stroke-width:2px;}.cls-2{fill:#9a6632;}.cls-4{fill:none;}.cls-6,.cls-7{fill:#fff;}.cls-10,.cls-8{fill:#00aeef;}.cls-11,.cls-9{fill:#2e3192;}</style></defs><title>darwin</title><path class="cls-1" d="M152.7,111.7a20.38,20.38,0,1,0,11.4-3.5,21.29,21.29,0,0,0-11.4,3.5" transform="translate(0 -13.08)"/><path class="cls-1" d="M32.8,111.7a20.38,20.38,0,1,1-11.4-3.5,21.29,21.29,0,0,1,11.4,3.5" transform="translate(0 -13.08)"/><g id="_Gruppo_" data-name="&lt;Gruppo&gt;"><path class="cls-2" d="M151.7,128.7c5.8,6.6,8.8,14.2,8.8,22.1,0,12.2-7.1,23.4-20.1,31.7-12.2,7.8-28.2,12.1-45.2,12.1S62.1,190.3,50,182.5c-13-8.3-20.1-19.5-20.1-31.7a32,32,0,0,1,5.2-17.2,126.27,126.27,0,0,1-1.6-32.7c.9-11.6,1.8-22.2,6.3-31.4A34.83,34.83,0,0,1,43.1,64c14.7-20.2,45.1-19.2,50-19,4.5-.3,32.6-1.7,48,17.3a50.41,50.41,0,0,1,4.6,7.1c5.1,9.9,6.1,21.3,7,31.4A107.34,107.34,0,0,1,151.7,128.7Zm3.1,22.1c0-7.4-3.3-14.3-9-20.1a277.39,277.39,0,0,0,1.2-29.8c0-23-12.6-41.6-28-41.6-11.7,0-21.8,10.7-26,25.8C88.8,69.9,78.8,59.3,67.1,59.3,59.7,59.3,53,63.5,48,70.4c-5.5,7.6-8.9,18.4-8.9,30.4,0,15.9.7,26.8,1.8,34a26.75,26.75,0,0,0-5.4,15.9c0,21.1,26.7,38.1,59.6,38.1S154.8,171.8,154.8,150.8Z" transform="translate(0 -13.08)"/><path class="cls-3" d="M145.8,130.6c5.7,5.8,9,12.8,9,20.1,0,21.1-26.7,38.1-59.7,38.1s-59.6-17.1-59.6-38.1a26.75,26.75,0,0,1,5.4-15.9c-1.2-7.2-1.8-18.1-1.8-34,0-12,3.4-22.8,8.9-30.4,5-6.9,11.7-11.1,19.1-11.1C78.8,59.3,88.9,70,93,85.1c4.2-15.2,14.2-25.8,26-25.8,15.5,0,28,18.6,28,41.6A252.4,252.4,0,0,1,145.8,130.6Z" transform="translate(0 -13.08)"/><path class="cls-4" d="M145.7,69.5c5.1,9.9,6.1,21.3,7,31.4a106.78,106.78,0,0,1-1,27.8c5.8,6.6,8.8,14.2,8.8,22.1,0,12.2-7.1,23.4-20.1,31.7-12.2,7.8-28.2,12.1-45.2,12.1S62.1,190.3,50,182.5c-13-8.3-20.1-19.5-20.1-31.7a32,32,0,0,1,5.2-17.2,126.27,126.27,0,0,1-1.6-32.7c.9-11.6,1.8-22.2,6.3-31.4" transform="translate(0 -13.08)"/><path class="cls-4" d="M39.8,69.5A34.83,34.83,0,0,1,43.1,64c14.7-20.2,45.1-19.2,50-19,4.5-.3,32.6-1.7,48,17.3a50.41,50.41,0,0,1,4.6,7.1" transform="translate(0 -13.08)"/><path class="cls-4" d="M48.1,70.4c5-6.9,11.7-11.1,19.1-11.1C78.9,59.3,89,70,93.1,85.1c4.2-15.2,14.2-25.8,26-25.8,15.5,0,28,18.6,28,41.6a278.68,278.68,0,0,1-1.2,29.8c5.7,5.8,9,12.8,9,20.1,0,21.1-26.7,38.1-59.7,38.1s-59.6-17.1-59.6-38.1A26.75,26.75,0,0,1,41,134.9c-1.2-7.2-1.8-18.1-1.8-34C39.1,88.8,42.6,78,48.1,70.4Z" transform="translate(0 -13.08)"/></g><ellipse class="cls-5" cx="66.1" cy="90.72" rx="5.9" ry="14.3"/><path class="cls-4" d="M79.3,134.5a8.5,8.5,0,0,1-2-9.3,8.61,8.61,0,0,1,7.7-5.5,8.49,8.49,0,0,1,8.3,5.8" transform="translate(0 -13.08)"/><path class="cls-4" d="M107.3,134.5a8.5,8.5,0,0,0,2-9.3,8.61,8.61,0,0,0-7.7-5.5,8.49,8.49,0,0,0-8.3,5.8" transform="translate(0 -13.08)"/><path class="cls-4" d="M176.1,171.3" transform="translate(0 -13.08)"/><g id="_Gruppo_2" data-name="&lt;Gruppo&gt;"><path class="cls-6" d="M144.7,154.6a8.61,8.61,0,0,1-4.8,7.8l-2.9-7.7c2.5-2,4.5-3.9,6-5.3A8.75,8.75,0,0,1,144.7,154.6Z" transform="translate(0 -13.08)"/><path class="cls-6" d="M135.9,145.8a8.76,8.76,0,0,1,7.1,3.6,73.65,73.65,0,0,1-6,5.3l-3.3-8.7A16.35,16.35,0,0,1,135.9,145.8Z" transform="translate(0 -13.08)"/><path class="cls-6" d="M137,154.7l2.9,7.7c-.1,0-.1.1-.2.1h0l-3.9-6.9A4.7,4.7,0,0,0,137,154.7Z" transform="translate(0 -13.08)"/><path class="cls-6" d="M135.8,155.7l3.9,6.9H128.9l-.7-1.8A71.5,71.5,0,0,0,135.8,155.7Z" transform="translate(0 -13.08)"/><path class="cls-6" d="M128.8,162.6h10.8a68.68,68.68,0,0,1-8.7,5.7Z" transform="translate(0 -13.08)"/><path class="cls-6" d="M133.8,146l3.3,8.7-1.2.9-4.8-8.5h0A16.87,16.87,0,0,1,133.8,146Z" transform="translate(0 -13.08)"/><path class="cls-6" d="M131.1,147.2l4.8,8.5a66.89,66.89,0,0,1-7.6,5.1l-3.2-8.5A53,53,0,0,0,131.1,147.2Z" transform="translate(0 -13.08)"/><path class="cls-6" d="M128.8,162.6l2.2,5.7a88.34,88.34,0,0,1-11,5.1l-2.1-7.7a56.67,56.67,0,0,0,7-3.1Z" transform="translate(0 -13.08)"/><path class="cls-6" d="M128.2,160.8l.7,1.8H125C126.1,162,127.1,161.4,128.2,160.8Z" transform="translate(0 -13.08)"/><path class="cls-6" d="M124.9,152.3l3.2,8.5q-1.5.9-3.3,1.8h-7.9l-1.4-5.1A47.07,47.07,0,0,0,124.9,152.3Z" transform="translate(0 -13.08)"/><path class="cls-6" d="M117,162.6h7.9a64.23,64.23,0,0,1-7,3.1Z" transform="translate(0 -13.08)"/><path class="cls-6" d="M117.9,165.7l2.1,7.7a73.31,73.31,0,0,1-11.9,3.2l-1-7.9A65.26,65.26,0,0,0,117.9,165.7Z" transform="translate(0 -13.08)"/><path class="cls-6" d="M117,162.6l.8,3.1a65.26,65.26,0,0,1-10.8,3l-.8-6.1Z" transform="translate(0 -13.08)"/><path class="cls-6" d="M115.7,157.5l1.4,5.1H106.4l-.2-2A46,46,0,0,0,115.7,157.5Z" transform="translate(0 -13.08)"/><path class="cls-6" d="M107.1,168.7l1,7.9a69.54,69.54,0,0,1-12.4,1.2v-8A59.58,59.58,0,0,0,107.1,168.7Z" transform="translate(0 -13.08)"/><path class="cls-6" d="M106.4,162.6l.8,6.1a59.85,59.85,0,0,1-11.5,1.1v-7.2Z" transform="translate(0 -13.08)"/><path class="cls-6" d="M106.1,160.6l.2,2H95.7v-.8A48.63,48.63,0,0,0,106.1,160.6Z" transform="translate(0 -13.08)"/><path class="cls-6" d="M95.7,169.8v8H93.9a78.71,78.71,0,0,1-11.3-1.1l1-7.9a63.07,63.07,0,0,0,11.8,1.1A.37.37,0,0,1,95.7,169.8Z" transform="translate(0 -13.08)"/><path class="cls-6" d="M95.7,162.6v7.2h-.3a63.07,63.07,0,0,1-11.8-1.1l.8-6.1Z" transform="translate(0 -13.08)"/><path class="cls-6" d="M95.7,161.8v.8H84.4l.2-2a47.2,47.2,0,0,0,11.1,1.2Z" transform="translate(0 -13.08)"/><path class="cls-6" d="M84.6,160.7l-.2,2H73.7l1.4-5.1A50.45,50.45,0,0,0,84.6,160.7Z" transform="translate(0 -13.08)"/><path class="cls-6" d="M84.3,162.6l-.8,6.1a65.34,65.34,0,0,1-10.8-2.9l.9-3.2Z" transform="translate(0 -13.08)"/><path class="cls-6" d="M83.6,168.8l-1,7.9a76.2,76.2,0,0,1-11.9-3.2h0l2.1-7.7A65.26,65.26,0,0,0,83.6,168.8Z" transform="translate(0 -13.08)"/><path class="cls-6" d="M75,157.6h0l-1.4,5.1H65.4c-1-.5-2-1.1-3-1.6l3.3-8.6A82.83,82.83,0,0,0,75,157.6Z" transform="translate(0 -13.08)"/><path class="cls-6" d="M73.6,162.6l-.9,3.2a69.78,69.78,0,0,1-7.3-3.2Z" transform="translate(0 -13.08)"/><path class="cls-6" d="M72.8,165.8l-2.1,7.7h0a64.22,64.22,0,0,1-11.1-5.1l2.2-5.8h3.6A55,55,0,0,0,72.8,165.8Z" transform="translate(0 -13.08)"/><path class="cls-6" d="M65.7,152.4,62.4,161a66.06,66.06,0,0,1-7.3-4.8l5.2-8.2C61.1,148.7,63,150.4,65.7,152.4Z" transform="translate(0 -13.08)"/><path class="cls-6" d="M65.5,162.6H61.9l.6-1.6A21.15,21.15,0,0,0,65.5,162.6Z" transform="translate(0 -13.08)"/><path class="cls-6" d="M62.4,161l-.6,1.6H51.1l4-6.4C57.3,157.8,59.7,159.4,62.4,161Z" transform="translate(0 -13.08)"/><path class="cls-6" d="M61.8,162.6l-2.2,5.8a63.1,63.1,0,0,1-8.8-5.8c.1,0,.1.1.2.1l.1-.1Z" transform="translate(0 -13.08)"/><path class="cls-6" d="M60.3,148l-5.2,8.2c-.5-.4-1.1-.8-1.6-1.2l3.3-8.9A10.91,10.91,0,0,1,60.3,148Z" transform="translate(0 -13.08)"/><path class="cls-6" d="M56.9,146.1,53.6,155a66.46,66.46,0,0,1-6.2-5.5,8.9,8.9,0,0,1,7.2-3.7A8.52,8.52,0,0,1,56.9,146.1Z" transform="translate(0 -13.08)"/><path class="cls-6" d="M55.1,156.2l-4,6.4h-.3a.1.1,0,0,1-.1-.1l2.9-7.6A17.38,17.38,0,0,0,55.1,156.2Z" transform="translate(0 -13.08)"/><path class="cls-6" d="M53.5,155l-2.9,7.6a8.87,8.87,0,0,1-3.3-13.2A78.77,78.77,0,0,0,53.5,155Z" transform="translate(0 -13.08)"/><path class="cls-6" d="M51.1,162.6l-.1.1c-.1,0-.1-.1-.2-.1h.3Z" transform="translate(0 -13.08)"/><path class="cls-4" d="M50.8,162.7a.1.1,0,0,1-.1-.1,8.87,8.87,0,0,1-3.3-13.2,8.9,8.9,0,0,1,7.2-3.7,6.05,6.05,0,0,1,2.4.4,8.79,8.79,0,0,1,3.4,1.8" transform="translate(0 -13.08)"/><path class="cls-4" d="M139.7,162.6a.35.35,0,0,0,.2-.1,8.9,8.9,0,0,0,4.8-7.8,8.53,8.53,0,0,0-1.7-5.2,8.76,8.76,0,0,0-7.1-3.6,7.61,7.61,0,0,0-2.1.3,6.6,6.6,0,0,0-2.7,1.2" transform="translate(0 -13.08)"/><path class="cls-4" d="M75,157.6a55.74,55.74,0,0,0,9.5,3.1,54.51,54.51,0,0,0,11,1.2h.1a49.59,49.59,0,0,0,10.5-1.2,53.19,53.19,0,0,0,18.8-8.3,41.55,41.55,0,0,0,6.1-5.1" transform="translate(0 -13.08)"/><path class="cls-4" d="M60.3,148a40,40,0,0,0,5.5,4.4,48.93,48.93,0,0,0,9.3,5.2" transform="translate(0 -13.08)"/><path class="cls-4" d="M50.8,162.6h0a70,70,0,0,0,8.8,5.8,83.8,83.8,0,0,0,11.1,5.1,76.2,76.2,0,0,0,11.9,3.2,78.71,78.71,0,0,0,11.3,1.1h1.8a68.63,68.63,0,0,0,12.4-1.2,76.2,76.2,0,0,0,11.9-3.2,77.28,77.28,0,0,0,19.7-10.8" transform="translate(0 -13.08)"/><path class="cls-4" d="M47.3,149.5a65.05,65.05,0,0,0,6.2,5.5c.5.4,1,.8,1.6,1.2a77.1,77.1,0,0,0,7.3,4.8c1,.6,2,1.1,3,1.6,2.3,1.1,4.7,2.2,7.3,3.2a65.34,65.34,0,0,0,10.8,2.9,63.07,63.07,0,0,0,11.8,1.1h.3a60.64,60.64,0,0,0,11.5-1.1,71.22,71.22,0,0,0,10.8-3,56.67,56.67,0,0,0,7-3.1l3.3-1.8a71.5,71.5,0,0,0,7.6-5.1l1.2-.9c2.5-2,4.5-3.9,6-5.3" transform="translate(0 -13.08)"/><polyline class="cls-4" points="95.7 148.72 95.7 149.52 95.7 156.72 95.7 164.72 95.7 164.72"/><polyline class="cls-4" points="106.1 147.52 106.1 147.52 106.4 149.52 107.1 155.62 108.1 163.52"/><polyline class="cls-4" points="115.7 144.42 117 149.52 117.9 152.62 120 160.32"/><polyline class="cls-4" points="124.9 139.22 128.2 147.72 128.8 149.52 131 155.22 131 155.22"/><polyline class="cls-4" points="133.8 132.92 137 141.62 139.9 149.42 139.9 149.42"/><polyline class="cls-4" points="84.6 147.52 84.6 147.62 84.3 149.52 83.6 155.72 82.6 163.62"/><polyline class="cls-4" points="75 144.52 75 144.52 73.6 149.52 72.8 152.72 70.7 160.42"/><polyline class="cls-4" points="65.7 139.32 62.4 147.92 61.8 149.52 59.6 155.42"/><polyline class="cls-4" points="57 132.72 56.9 133.02 53.5 141.92 50.7 149.52 50.7 149.52"/></g><ellipse class="cls-7" cx="65.2" cy="81.92" rx="2.5" ry="4.4"/><ellipse class="cls-5" cx="119.4" cy="90.72" rx="5.9" ry="14.3"/><ellipse class="cls-7" cx="118.5" cy="81.92" rx="2.5" ry="4.4"/><g id="_Gruppo_3" data-name="&lt;Gruppo&gt;"><path class="cls-8" d="M181.5,14c.3.2-1.2,3.7-4.2,6.7a25,25,0,0,1-2,1.8h0a5.55,5.55,0,0,1-.8.6,26.85,26.85,0,0,1-8.1,3.8,51,51,0,0,1-8.4,1.8,39.16,39.16,0,0,1-5.1.5c-2.4.2-3.9.2-11.5.3-2.3,0-5.1.1-8.7.2s-6.4.2-9.5,1.6a17.33,17.33,0,0,0-5.5,4L103.8,26a30.46,30.46,0,0,1,7-3.3c1.5-.5,6.3-2,21.4-1.2,7.1.4,7.7.8,17.8,1.4a86.08,86.08,0,0,0,14.2-.2c6.7-.8,9.2-2,10.5-2.8C179,17.3,181.1,13.7,181.5,14Z" transform="translate(0 -13.08)"/><path class="cls-8" d="M168.1,69.5H17.8l29.6-20,1-.7,4.4-3c11.9.1,28.6,3.1,54,8.8,16.4,3.7,36.9,8.5,60.4,14.7A2.92,2.92,0,0,1,168.1,69.5Z" transform="translate(0 -13.08)"/><path class="cls-9" d="M168.1,69.5a3.09,3.09,0,0,0-.8-.2v-.1L68.2,35.4,82.1,26l10.8-7.3L103.7,26l13.9,9.4L131.9,45l.6.4,5,3.3,1,.7Z" transform="translate(0 -13.08)"/><path class="cls-9" d="M167.3,69.2h0c-23.5-6.1-44-11-60.4-14.6-25.4-5.7-42.1-8.7-54-8.8l.5-.3L54,45l14.3-9.6Z" transform="translate(0 -13.08)"/><path class="cls-9" d="M141.4,29.5v.1c-.7.5-1.3,1.1-2,1.6a27.13,27.13,0,0,0-2.5,2.4,10.63,10.63,0,0,0-.9,1.1,23.36,23.36,0,0,0-1.9,3l-.6,1.2a12.86,12.86,0,0,0-.9,2.8l-.3,1.2c-.1.7-.2,1.3-.3,1.9l-.1.1-14.3-9.6a17.33,17.33,0,0,1,5.5-4c3.1-1.5,5.8-1.5,9.5-1.6S139.1,29.6,141.4,29.5Z" transform="translate(0 -13.08)"/><path class="cls-8" d="M82.1,26,68.2,35.4a17.33,17.33,0,0,0-5.5-4c-3.1-1.5-5.8-1.5-9.5-1.6s-6.4-.1-8.7-.2c-7.6-.1-9.2-.1-11.5-.3-1.3-.1-3-.2-5.1-.5A63.94,63.94,0,0,1,19.5,27a26.85,26.85,0,0,1-8.1-3.8c-.3-.2-.5-.4-.8-.6h0a9.7,9.7,0,0,1-2-1.8c-2.9-3-4.5-6.5-4.2-6.7s2.4,3.3,6.8,5.8c1.3.8,3.8,2,10.5,2.8a69.43,69.43,0,0,0,14.3.2c10-.5,10.6-1,17.7-1.4,15-.8,19.8.7,21.4,1.2A30.46,30.46,0,0,1,82.1,26Z" transform="translate(0 -13.08)"/><path class="cls-9" d="M68.2,35.4,54,45l-.1-.1a14.81,14.81,0,0,0-.3-1.9c-.1-.4-.2-.9-.3-1.2-.4-1.3-.8-2.3-1-2.8l-.6-1.2a23.36,23.36,0,0,0-1.9-3,10.63,10.63,0,0,0-.9-1.1,27.07,27.07,0,0,0-2.4-2.4,10.8,10.8,0,0,0-2-1.6v-.1c2.3,0,5.1.1,8.7.2s6.4.2,9.5,1.6A15.93,15.93,0,0,1,68.2,35.4Z" transform="translate(0 -13.08)"/><path class="cls-8" d="M52.8,45.8l-4.4,3a6.62,6.62,0,0,1-1.5-.1,7.32,7.32,0,0,1-2.2-.5,5.22,5.22,0,0,1-2-1.4.35.35,0,0,1-.1-.2A62.11,62.11,0,0,1,52.8,45.8Z" transform="translate(0 -13.08)"/><path class="cls-8" d="M48.4,48.8l-1,.7v-.1c-1.6-.1-2.9-.1-3.9-.1a36,36,0,0,1-5.8-.4,6.88,6.88,0,0,0-1.3-.2,28.12,28.12,0,0,1,6.2-1.9.35.35,0,0,1,.1.2,5.22,5.22,0,0,0,2,1.4,8.53,8.53,0,0,0,2.2.5A3.69,3.69,0,0,1,48.4,48.8Z" transform="translate(0 -13.08)"/><path class="cls-8" d="M47.4,49.4h0L17.8,69.5A38.6,38.6,0,0,1,30.1,52.4a28.87,28.87,0,0,1,6.3-3.7,5.07,5.07,0,0,0,1.3.2,52.83,52.83,0,0,0,5.8.4A27.15,27.15,0,0,1,47.4,49.4Z" transform="translate(0 -13.08)"/><path class="cls-4" d="M10.6,22.5a5.55,5.55,0,0,0,.8.6,26.85,26.85,0,0,0,8.1,3.8,51,51,0,0,0,8.4,1.8,40.81,40.81,0,0,0,5.1.5c2.4.2,3.9.2,11.5.3,2.3,0,5.1.1,8.7.2s6.4.2,9.5,1.6a17.33,17.33,0,0,1,5.5,4" transform="translate(0 -13.08)"/><path class="cls-4" d="M82.1,26a30.46,30.46,0,0,0-7-3.3c-1.5-.5-6.3-2-21.4-1.2-7.1.4-7.7.8-17.7,1.4a87.35,87.35,0,0,1-14.3-.2c-6.7-.8-9.2-2-10.5-2.8-4.4-2.5-6.4-6.1-6.8-5.8s1.2,3.7,4.2,6.7a25,25,0,0,0,2,1.8" transform="translate(0 -13.08)"/><path class="cls-4" d="M48.9,33.7c-3.5,0-10.3-.1-14.9-.6a6.75,6.75,0,0,1-1.7-.3,5.69,5.69,0,0,1-2.2-1.1,7.17,7.17,0,0,1-2.3-3.1" transform="translate(0 -13.08)"/><path class="cls-4" d="M32.9,34a52,52,0,0,1-8.8-2.1c-3.4-1.2-6.3-2.2-9.2-4.6-.6-.5-1.1-1-1.6-1.5a17.41,17.41,0,0,1-2.6-3.2h0" transform="translate(0 -13.08)"/><path class="cls-4" d="M32.4,32.8a9.74,9.74,0,0,0,.5,1.1,6.08,6.08,0,0,0,1,1.4,4.06,4.06,0,0,0,1,.9,4.41,4.41,0,0,0,1.5.8,12.17,12.17,0,0,0,4,.8,36,36,0,0,0,5.4.2c1.6,0,3.7-.1,6.1-.3" transform="translate(0 -13.08)"/><path class="cls-4" d="M34.8,36.3a4.43,4.43,0,0,0,.3,1.5,5.82,5.82,0,0,0,1,1.9,6.08,6.08,0,0,0,2.4,1.5h.1a12.26,12.26,0,0,0,4.8.9c2.2.1,3.2-.1,6.1-.2,1.5-.1,2.8-.1,3.8-.1" transform="translate(0 -13.08)"/><path class="cls-4" d="M38.6,41.2h0c.2.4.4.8.7,1.3a4.06,4.06,0,0,0,.9,1A4.39,4.39,0,0,0,42,44.6c.1.1.2.1.4.2a12.61,12.61,0,0,0,3,.8,21.47,21.47,0,0,0,4.4,0,32.62,32.62,0,0,1,3.7-.2" transform="translate(0 -13.08)"/><path class="cls-4" d="M41.9,45a4.72,4.72,0,0,0,.7,1.7" transform="translate(0 -13.08)"/><path class="cls-4" d="M44.5,29.7c.7.5,1.3,1.1,2,1.6a18.1,18.1,0,0,1,2.4,2.4,10.63,10.63,0,0,1,.9,1.1,15.83,15.83,0,0,1,1.9,3l.6,1.2a18.65,18.65,0,0,1,1,2.8l.3,1.2c.1.7.2,1.3.3,1.9" transform="translate(0 -13.08)"/><path class="cls-4" d="M34.8,37.9c-1.3-.2-2.4-.4-3.2-.6a31,31,0,0,1-4.8-1.5c-1.8-.7-2.8-1-3.9-1.5A36.08,36.08,0,0,1,19,32.1c-.6-.4-1.2-.8-1.7-1.2a14.16,14.16,0,0,1-2.2-1.8,10,10,0,0,1-2-3.3" transform="translate(0 -13.08)"/><path class="cls-4" d="M39.2,42.4c-1-.1-1.8-.2-2.5-.2a31.22,31.22,0,0,1-4.4-.6,38.91,38.91,0,0,1-3.9-1.2,25.14,25.14,0,0,1-4.1-2h0a22.34,22.34,0,0,1-3.2-2.5,17.33,17.33,0,0,1-2.6-3c-.3-.5-.7-1.1-1.1-1.9" transform="translate(0 -13.08)"/><path class="cls-4" d="M42.8,44.7h-.6c-1.5,0-2.7.1-3.6.1a27.9,27.9,0,0,1-5-.2,15.71,15.71,0,0,1-3.1-.9.31.31,0,0,1-.2-.1,11.7,11.7,0,0,1-3.5-2.1,12.2,12.2,0,0,1-2.6-3.2" transform="translate(0 -13.08)"/><path class="cls-4" d="M36.4,48.6a8.48,8.48,0,0,1-2.7-1,10.92,10.92,0,0,1-2.4-2.1,7.64,7.64,0,0,1-1.1-1.6" transform="translate(0 -13.08)"/><path class="cls-4" d="M175.3,22.5a5.55,5.55,0,0,1-.8.6,26.85,26.85,0,0,1-8.1,3.8,51,51,0,0,1-8.4,1.8,39.16,39.16,0,0,1-5.1.5c-2.4.2-3.9.2-11.5.3-2.3,0-5.1.1-8.7.2s-6.4.2-9.5,1.6a17.33,17.33,0,0,0-5.5,4" transform="translate(0 -13.08)"/><path class="cls-4" d="M103.8,26a30.46,30.46,0,0,1,7-3.3c1.5-.5,6.3-2,21.4-1.2,7.1.4,7.7.8,17.8,1.4a86.08,86.08,0,0,0,14.2-.2c6.7-.8,9.2-2,10.5-2.8,4.4-2.5,6.4-6.1,6.8-5.8s-1.2,3.7-4.2,6.7a25,25,0,0,1-2,1.8" transform="translate(0 -13.08)"/><path class="cls-4" d="M137,33.7c3.5,0,10.3-.1,14.9-.6a6.75,6.75,0,0,0,1.7-.3,5.69,5.69,0,0,0,2.2-1.1,7.17,7.17,0,0,0,2.3-3.1" transform="translate(0 -13.08)"/><path class="cls-4" d="M153,34a49.69,49.69,0,0,0,8.8-2.1c3.4-1.2,6.3-2.2,9.2-4.6.6-.5,1.1-1,1.6-1.5a22.87,22.87,0,0,0,2.6-3.2h0" transform="translate(0 -13.08)"/><path class="cls-4" d="M153.5,32.8a9.74,9.74,0,0,1-.5,1.1,6.08,6.08,0,0,1-1,1.4,4.06,4.06,0,0,1-1,.9,7.57,7.57,0,0,1-1.5.8,12.17,12.17,0,0,1-4,.8,36,36,0,0,1-5.4.2c-1.6,0-3.7-.1-6.1-.3" transform="translate(0 -13.08)"/><path class="cls-4" d="M151.1,36.3a4.43,4.43,0,0,1-.3,1.5,5.82,5.82,0,0,1-1,1.9,6.08,6.08,0,0,1-2.4,1.5h-.1a12.26,12.26,0,0,1-4.8.9c-2.2.1-3.2-.1-6.1-.2-1.5-.1-2.8-.1-3.8-.1" transform="translate(0 -13.08)"/><path class="cls-4" d="M147.3,41.2h0c-.2.4-.4.8-.7,1.3a4.06,4.06,0,0,1-.9,1,5.82,5.82,0,0,1-1.8,1.1c-.1.1-.2.1-.4.2a12.61,12.61,0,0,1-3,.8,21.51,21.51,0,0,1-4.4,0,32.62,32.62,0,0,0-3.7-.2" transform="translate(0 -13.08)"/><path class="cls-4" d="M144,45a3.59,3.59,0,0,1-.8,1.8,5.22,5.22,0,0,1-2,1.4,8.53,8.53,0,0,1-2.2.5c-.4,0-.9.1-1.4.1" transform="translate(0 -13.08)"/><path class="cls-4" d="M141.4,29.7c-.7.5-1.3,1.1-2,1.6a27.13,27.13,0,0,0-2.5,2.4,10.63,10.63,0,0,0-.9,1.1,23.36,23.36,0,0,0-1.9,3l-.6,1.2a12.86,12.86,0,0,0-.9,2.8l-.3,1.2c-.1.7-.2,1.3-.3,1.9" transform="translate(0 -13.08)"/><path class="cls-4" d="M151.1,37.9c1.3-.2,2.4-.4,3.2-.6a31,31,0,0,0,4.8-1.5c1.9-.7,2.8-1,3.9-1.5a36.08,36.08,0,0,0,3.9-2.2c.6-.4,1.2-.8,1.7-1.2a14.16,14.16,0,0,0,2.2-1.8,10,10,0,0,0,2-3.3" transform="translate(0 -13.08)"/><path class="cls-4" d="M146.7,42.4c1-.1,1.8-.2,2.5-.2a31.22,31.22,0,0,0,4.4-.6,38.91,38.91,0,0,0,3.9-1.2,25.14,25.14,0,0,0,4.1-2h.1a22.34,22.34,0,0,0,3.2-2.5,17.33,17.33,0,0,0,2.6-3c.3-.5.7-1.1,1.1-1.9" transform="translate(0 -13.08)"/><path class="cls-4" d="M143.1,44.7h.9a30.22,30.22,0,0,1,3.3.1,27.9,27.9,0,0,0,5-.2,15.71,15.71,0,0,0,3.1-.9.31.31,0,0,0,.2-.1,11.7,11.7,0,0,0,3.5-2.1,12.2,12.2,0,0,0,2.6-3.2" transform="translate(0 -13.08)"/><path class="cls-4" d="M138.5,49.4c1.6-.1,2.9-.1,3.9-.1a36,36,0,0,0,5.8-.4,11.79,11.79,0,0,0,4-1.2,10.92,10.92,0,0,0,2.4-2.1,11.57,11.57,0,0,0,1.1-1.6" transform="translate(0 -13.08)"/><polyline class="cls-4" points="168.1 56.42 138.5 36.32 137.5 35.72 132.5 32.32 131.9 31.92 117.7 22.32 103.8 12.92 92.9 5.62 82.1 12.92 68.2 22.32"/><polyline class="cls-4" points="68.2 22.32 54 31.92 53.4 32.32 52.8 32.72"/><path class="cls-4" d="M17.8,69.5A38.6,38.6,0,0,1,30.1,52.4a28.87,28.87,0,0,1,6.3-3.7,28.12,28.12,0,0,1,6.2-1.9,52.29,52.29,0,0,1,10.2-.9c11.9.1,28.6,3.1,54,8.8,16.4,3.7,36.9,8.5,60.4,14.7a3.09,3.09,0,0,0,.8.2" transform="translate(0 -13.08)"/></g><path class="cls-10" d="M23.9,73.7" transform="translate(0 -13.08)"/><path class="cls-10" d="M38.8,75.5" transform="translate(0 -13.08)"/><path class="cls-10" d="M145.1,72.6" transform="translate(0 -13.08)"/><path class="cls-11" d="M39.8,69.4c-.3.9-.8,2.2-1.4,3.7-.3.7-.6,1.1-.9,1.9-.7,1.9-.5,2.2-.9,2.7-1.3,1.9-7.4-.2-10-1.1-4.5-1.6-6-3-6.6-3.7a12.86,12.86,0,0,1-2.3-3.5" transform="translate(0 -13.08)"/><path class="cls-10" d="M16.1,86" transform="translate(0 -13.08)"/><path class="cls-4" d="M35.8,127.1" transform="translate(0 -13.08)"/><path class="cls-4" d="M10.5,119a14.29,14.29,0,0,1,9.5-4c3.6,0,6.3,1.6,9,3.2a24.71,24.71,0,0,1,3.9,2.9" transform="translate(0 -13.08)"/><path class="cls-4" d="M175,119a14.29,14.29,0,0,0-9.5-4c-3.6,0-6.3,1.6-9,3.2a24.71,24.71,0,0,0-3.9,2.9" transform="translate(0 -13.08)"/><path class="cls-11" d="M145.7,69.4c.3.7.8,1.7,1.4,3,1.7,3.9,1.6,4.9,2.6,5.6s2.6.2,6-.6a19.59,19.59,0,0,0,5.9-2,15.39,15.39,0,0,0,6.4-6" transform="translate(0 -13.08)"/><path class="cls-10" d="M17.8,69.5H168.1" transform="translate(0 -13.08)"/><line class="cls-4" x1="43.7" y1="57.12" x2="43.7" y2="57.12"/></svg>